<svg xmlns="http://www.w3.org/2000/svg" xmlns:xlink="http://www.w3.org/1999/xlink" fill="none" version="1.1" width="38.461544036865234" height="38.46142578125" viewBox="0 0 38.461544036865234 38.46142578125"><defs><clipPath id="master_svg0_147_62698"><rect x="7.692307472229004" y="7.6923828125" width="23.076923370361328" height="23.076919555664062" rx="0"/></clipPath></defs><g><rect x="0" y="0" width="38.46154022216797" height="38.46153259277344" rx="7.692307472229004" fill="#BEBEBE" fill-opacity="0.10000000149011612"/><g clip-path="url(#master_svg0_147_62698)"><g><rect x="10.577073097229004" y="10.5771484375" width="17.307693481445312" height="17.307689666748047" rx="2.884615421295166" fill="#BEBEBE" fill-opacity="1" style="mix-blend-mode:passthrough"/><path d="M9.615535097229003,25.000248437499998L9.615535097229003,13.4617684375Q9.615535097229003,11.8686384375,10.742047097229005,10.7421224375Q11.868563097229003,9.615610437499999,13.461693097229004,9.615610437499999L25.000173097229002,9.615610437499999Q26.593273097229005,9.615610437499999,27.719773097229005,10.7421224375Q28.846273097229005,11.8686384375,28.846273097229005,13.4617684375L28.846273097229005,25.000248437499998Q28.846273097229005,26.5933484375,27.719773097229005,27.7198484375Q26.593273097229005,28.8463484375,25.000173097229002,28.8463484375L13.461693097229004,28.8463484375Q11.868563097229003,28.8463484375,10.742047097229005,27.7198484375Q9.615535097229003,26.5933484375,9.615535097229003,25.000248437499998ZM11.538611097229005,25.000248437499998Q11.538611097229005,26.9233484375,13.461693097229004,26.9233484375L25.000173097229002,26.9233484375Q26.923273097229004,26.9233484375,26.923273097229004,25.000248437499998L26.923273097229004,13.4617684375Q26.923273097229004,11.538686437500001,25.000173097229002,11.538686437500001L13.461693097229004,11.538686437500001Q11.538611097229005,11.538686437500001,11.538611097229005,13.4617684375L11.538611097229005,25.000248437499998Z" fill="#BEBEBE" fill-opacity="1" style="mix-blend-mode:passthrough"/></g><g><rect x="13.942307472229004" y="13.9423828125" width="3.846153974533081" height="3.8461532592773438" rx="0" fill="#FFFFFF" fill-opacity="1" style="mix-blend-mode:passthrough"/><path d="M12.980769472229003,17.7885328125L12.980769472229003,13.9423828125Q12.980769472229003,13.8476796125,12.999244472229003,13.7547958125Q13.017720472229003,13.6619128125,13.053961472229004,13.5744178125Q13.090203472229003,13.4869238125,13.142817472229003,13.4081808125Q13.195431472229004,13.3294378125,13.262397472229004,13.2624728125Q13.329362472229004,13.1955068125,13.408105472229003,13.1428928125Q13.486848472229005,13.0902788125,13.574342472229004,13.0540368125Q13.661837472229005,13.0177958125,13.754720472229003,12.9993198125Q13.847604272229004,12.980844812499999,13.942307472229004,12.980844812499999L17.788457472229005,12.980844812499999Q17.883167472229005,12.980844812499999,17.976047472229006,12.9993198125Q18.068927472229003,13.0177958125,18.156427472229005,13.0540368125Q18.243917472229004,13.0902788125,18.322667472229003,13.1428928125Q18.401407472229003,13.1955068125,18.468367472229005,13.2624728125Q18.535337472229003,13.3294378125,18.587947472229004,13.4081808125Q18.640567472229005,13.4869238125,18.676807472229005,13.5744178125Q18.713047472229004,13.6619128125,18.731527472229004,13.7547958125Q18.749997472229005,13.8476796125,18.749997472229005,13.9423828125L18.749997472229005,17.7885328125Q18.749997472229005,17.8832428125,18.731527472229004,17.9761228125Q18.713047472229004,18.0690028125,18.676807472229005,18.1565028125Q18.640567472229005,18.2439928125,18.587947472229004,18.3227328125Q18.535337472229003,18.4014828125,18.468367472229005,18.4684428125Q18.401407472229003,18.5354128125,18.322667472229003,18.5880228125Q18.243917472229004,18.6406428125,18.156427472229005,18.6768828125Q18.068927472229003,18.7131228125,17.976047472229006,18.7316028125Q17.883167472229005,18.7500728125,17.788457472229005,18.7500728125L13.942307472229004,18.7500728125Q13.847604272229004,18.7500728125,13.754720472229003,18.7315928125Q13.661837472229005,18.7131228125,13.574342472229004,18.6768828125Q13.486848472229005,18.6406428125,13.408105472229003,18.5880228125Q13.329362472229004,18.5354128125,13.262397472229004,18.4684428125Q13.195431472229004,18.4014828125,13.142817472229003,18.3227328125Q13.090203472229003,18.2439928125,13.053961472229004,18.1565028125Q13.017720472229003,18.0690028125,12.999244472229003,17.9761228125Q12.980769472229003,17.8832428125,12.980769472229003,17.7885328125ZM14.903845472229005,14.903920812500001L14.903845472229005,16.8269928125L16.826927472229002,16.8269928125L16.826927472229002,14.903920812500001L14.903845472229005,14.903920812500001Z" fill="#FFFFFF" fill-opacity="1" style="mix-blend-mode:passthrough"/></g><g><rect x="20.672776222229004" y="13.9423828125" width="3.846153974533081" height="3.8461532592773438" rx="0" fill="#FFFFFF" fill-opacity="1" style="mix-blend-mode:passthrough"/><path d="M19.711238222229003,17.7885328125L19.711238222229003,13.9423828125Q19.711238222229003,13.8476796125,19.729713222229005,13.7547958125Q19.748189222229005,13.6619128125,19.784430222229005,13.5744178125Q19.820672222229003,13.4869238125,19.873286222229005,13.4081808125Q19.925900222229004,13.3294378125,19.992866222229004,13.2624728125Q20.059831222229004,13.1955068125,20.138574222229003,13.1428928125Q20.217317222229003,13.0902788125,20.304811222229002,13.0540368125Q20.392306222229003,13.0177958125,20.485189222229003,12.9993198125Q20.578073022229002,12.980844812499999,20.672776222229004,12.980844812499999L24.518926222229005,12.980844812499999Q24.613636222229005,12.980844812499999,24.706516222229006,12.9993198125Q24.799396222229003,13.0177958125,24.886896222229005,13.0540368125Q24.974386222229004,13.0902788125,25.053136222229003,13.1428928125Q25.131876222229003,13.1955068125,25.198836222229005,13.2624728125Q25.265806222229003,13.3294378125,25.318416222229004,13.4081808125Q25.371036222229005,13.4869238125,25.407276222229005,13.5744178125Q25.443516222229004,13.6619128125,25.461996222229004,13.7547958125Q25.480466222229005,13.8476796125,25.480466222229005,13.9423828125L25.480466222229005,17.7885328125Q25.480466222229005,17.8832428125,25.461996222229004,17.9761228125Q25.443516222229004,18.0690028125,25.407276222229005,18.1565028125Q25.371036222229005,18.2439928125,25.318416222229004,18.3227328125Q25.265806222229003,18.4014828125,25.198836222229005,18.4684428125Q25.131876222229003,18.5354128125,25.053136222229003,18.5880228125Q24.974386222229004,18.6406428125,24.886896222229005,18.6768828125Q24.799396222229003,18.7131228125,24.706516222229006,18.7316028125Q24.613636222229005,18.7500728125,24.518926222229005,18.7500728125L20.672776222229004,18.7500728125Q20.578073022229002,18.7500728125,20.485189222229003,18.7315928125Q20.392306222229003,18.7131228125,20.304811222229002,18.6768828125Q20.217317222229003,18.6406428125,20.138574222229003,18.5880228125Q20.059831222229004,18.5354128125,19.992866222229004,18.4684428125Q19.925900222229004,18.4014828125,19.873286222229005,18.3227328125Q19.820672222229003,18.2439928125,19.784430222229005,18.1565028125Q19.748189222229005,18.0690028125,19.729713222229005,17.9761228125Q19.711238222229003,17.8832428125,19.711238222229003,17.7885328125ZM21.634314222229005,14.903920812500001L21.634314222229005,16.8269928125L23.557396222229002,16.8269928125L23.557396222229002,14.903920812500001L21.634314222229005,14.903920812500001Z" fill="#FFFFFF" fill-opacity="1" style="mix-blend-mode:passthrough"/></g><g><rect x="13.942307472229004" y="20.67333984375" width="3.846153974533081" height="3.8461532592773438" rx="0" fill="#FFFFFF" fill-opacity="1" style="mix-blend-mode:passthrough"/><path d="M12.980769472229003,24.51948984375L12.980769472229003,20.67333984375Q12.980769472229003,20.57863664375,12.999244472229003,20.48575284375Q13.017720472229003,20.39286984375,13.053961472229004,20.30537484375Q13.090203472229003,20.21788084375,13.142817472229003,20.13913784375Q13.195431472229004,20.06039484375,13.262397472229004,19.99342984375Q13.329362472229004,19.92646384375,13.408105472229003,19.87384984375Q13.486848472229005,19.82123584375,13.574342472229004,19.78499384375Q13.661837472229005,19.74875284375,13.754720472229003,19.73027684375Q13.847604272229004,19.71180184375,13.942307472229004,19.71180184375L17.788457472229005,19.71180184375Q17.883167472229005,19.71180184375,17.976047472229006,19.73027684375Q18.068927472229003,19.74875284375,18.156427472229005,19.78499384375Q18.243917472229004,19.82123584375,18.322667472229003,19.87384984375Q18.401407472229003,19.92646384375,18.468367472229005,19.99342984375Q18.535337472229003,20.06039484375,18.587947472229004,20.13913784375Q18.640567472229005,20.21788084375,18.676807472229005,20.30537484375Q18.713047472229004,20.39286984375,18.731527472229004,20.48575284375Q18.749997472229005,20.57863664375,18.749997472229005,20.67333984375L18.749997472229005,24.51948984375Q18.749997472229005,24.61419984375,18.731527472229004,24.70707984375Q18.713047472229004,24.79995984375,18.676807472229005,24.88745984375Q18.640567472229005,24.97494984375,18.587947472229004,25.05368984375Q18.535337472229003,25.13243984375,18.468367472229005,25.19939984375Q18.401407472229003,25.26636984375,18.322667472229003,25.31897984375Q18.243917472229004,25.37159984375,18.156427472229005,25.40783984375Q18.068927472229003,25.44407984375,17.976047472229006,25.46255984375Q17.883167472229005,25.48102984375,17.788457472229005,25.48102984375L13.942307472229004,25.48102984375Q13.847604272229004,25.48102984375,13.754720472229003,25.46254984375Q13.661837472229005,25.44407984375,13.574342472229004,25.40783984375Q13.486848472229005,25.37159984375,13.408105472229003,25.31897984375Q13.329362472229004,25.26636984375,13.262397472229004,25.19939984375Q13.195431472229004,25.13243984375,13.142817472229003,25.05368984375Q13.090203472229003,24.97494984375,13.053961472229004,24.88745984375Q13.017720472229003,24.79995984375,12.999244472229003,24.70707984375Q12.980769472229003,24.61419984375,12.980769472229003,24.51948984375ZM14.903845472229005,21.63487784375L14.903845472229005,23.55794984375L16.826927472229002,23.55794984375L16.826927472229002,21.63487784375L14.903845472229005,21.63487784375Z" fill="#FFFFFF" fill-opacity="1" style="mix-blend-mode:passthrough"/></g><g><rect x="20.672776222229004" y="20.67333984375" width="3.846153974533081" height="3.8461532592773438" rx="0" fill="#FFFFFF" fill-opacity="1" style="mix-blend-mode:passthrough"/><path d="M19.711238222229003,24.51948984375L19.711238222229003,20.67333984375Q19.711238222229003,20.57863664375,19.729713222229005,20.48575284375Q19.748189222229005,20.39286984375,19.784430222229005,20.30537484375Q19.820672222229003,20.21788084375,19.873286222229005,20.13913784375Q19.925900222229004,20.06039484375,19.992866222229004,19.99342984375Q20.059831222229004,19.92646384375,20.138574222229003,19.87384984375Q20.217317222229003,19.82123584375,20.304811222229002,19.78499384375Q20.392306222229003,19.74875284375,20.485189222229003,19.73027684375Q20.578073022229002,19.71180184375,20.672776222229004,19.71180184375L24.518926222229005,19.71180184375Q24.613636222229005,19.71180184375,24.706516222229006,19.73027684375Q24.799396222229003,19.74875284375,24.886896222229005,19.78499384375Q24.974386222229004,19.82123584375,25.053136222229003,19.87384984375Q25.131876222229003,19.92646384375,25.198836222229005,19.99342984375Q25.265806222229003,20.06039484375,25.318416222229004,20.13913784375Q25.371036222229005,20.21788084375,25.407276222229005,20.30537484375Q25.443516222229004,20.39286984375,25.461996222229004,20.48575284375Q25.480466222229005,20.57863664375,25.480466222229005,20.67333984375L25.480466222229005,24.51948984375Q25.480466222229005,24.61419984375,25.461996222229004,24.70707984375Q25.443516222229004,24.79995984375,25.407276222229005,24.88745984375Q25.371036222229005,24.97494984375,25.318416222229004,25.05368984375Q25.265806222229003,25.13243984375,25.198836222229005,25.19939984375Q25.131876222229003,25.26636984375,25.053136222229003,25.31897984375Q24.974386222229004,25.37159984375,24.886896222229005,25.40783984375Q24.799396222229003,25.44407984375,24.706516222229006,25.46255984375Q24.613636222229005,25.48102984375,24.518926222229005,25.48102984375L20.672776222229004,25.48102984375Q20.578073022229002,25.48102984375,20.485189222229003,25.46254984375Q20.392306222229003,25.44407984375,20.304811222229002,25.40783984375Q20.217317222229003,25.37159984375,20.138574222229003,25.31897984375Q20.059831222229004,25.26636984375,19.992866222229004,25.19939984375Q19.925900222229004,25.13243984375,19.873286222229005,25.05368984375Q19.820672222229003,24.97494984375,19.784430222229005,24.88745984375Q19.748189222229005,24.79995984375,19.729713222229005,24.70707984375Q19.711238222229003,24.61419984375,19.711238222229003,24.51948984375ZM21.634314222229005,21.63487784375L21.634314222229005,23.55794984375L23.557396222229002,23.55794984375L23.557396222229002,21.63487784375L21.634314222229005,21.63487784375Z" fill="#FFFFFF" fill-opacity="1" style="mix-blend-mode:passthrough"/></g></g></g></svg>