<svg xmlns="http://www.w3.org/2000/svg" xmlns:xlink="http://www.w3.org/1999/xlink" fill="none" version="1.1" width="39.384613037109375" height="39.384521484375" viewBox="0 0 39.384613037109375 39.384521484375"><defs><clipPath id="master_svg0_147_62663"><rect x="7.692307472229004" y="7.6923065185546875" width="24" height="24" rx="0"/></clipPath></defs><g><rect x="0" y="0" width="39.384613037109375" height="39.384613037109375" rx="7.692307472229004" fill="#2ECC71" fill-opacity="0.10000000149011612"/><g clip-path="url(#master_svg0_147_62663)"><g><path d="M15.309460675354003,29.315544018554686L15.309460675354003,9.215744018554688L11.576340675354004,9.215744018554688C10.799690675354004,9.215744018554688,10.170090675354004,9.845344018554687,10.170090675354004,10.621994018554688L10.170090675354004,28.76264401855469C10.170090675354004,29.539244018554687,10.799690675354004,30.168844018554687,11.576340675354004,30.168844018554687L15.309460675354003,30.168844018554687L15.309460675354003,30.133744018554687C15.305710675354003,29.860944018554687,15.309460675354003,29.588044018554687,15.309460675354003,29.315544018554686ZM27.808190675354005,9.215744018554688L26.308190675354005,9.215744018554688L26.308190675354005,17.175824018554685C26.308290675354005,17.32407401855469,26.225690675354002,17.459984018554685,26.094090675354003,17.52822401855469C25.962490675354005,17.596474018554687,25.803790675354,17.585664018554688,25.682690675354003,17.500194018554687L23.348490675354004,15.854884018554689L21.012990675354004,17.500194018554687C20.891890675354006,17.585664018554688,20.733190675354003,17.596474018554687,20.601590675354004,17.52822401855469C20.469990675354005,17.459984018554685,20.387390675354006,17.324064018554687,20.387390675354006,17.175824018554685L20.387390675354006,9.215744018554688L16.434460675354003,9.215744018554688L16.434460675354003,9.250900218554687C16.438220675354003,9.523713018554687,16.434460675354003,9.796525018554687,16.434460675354003,10.069103018554687L16.434460675354003,30.168844018554687L27.808190675354005,30.168844018554687C28.584890675354004,30.168844018554687,29.214490675354003,29.539244018554687,29.214490675354003,28.76264401855469L29.214490675354003,10.621994018554688C29.214490675354003,9.845344018554687,28.584890675354004,9.215744197368688,27.808190675354005,9.215744018554688Z" fill="#2ECC71" fill-opacity="1" style="mix-blend-mode:passthrough"/></g></g></g></svg>