<svg xmlns="http://www.w3.org/2000/svg" xmlns:xlink="http://www.w3.org/1999/xlink" fill="none" version="1.1" width="16" height="15" viewBox="0 0 16 15"><g><g><path d="M0 2C1.2263184908229826e-16 0.8954305003384131 0.8954305003384133 0 2 0L14 0C15.104569499661586 0 16 0.8954305003384133 16 2L16 13C16 14.104569499661586 15.104569499661586 15 14 15L2 15C0.8954305003384133 15 0 14.104569499661586 0 13Z" fill="#FA5151" fill-opacity="1"/></g><g><path d="M6.0290099999999995,12C5.95308,12,5.91464,12,5.83777,11.96166C5.68497,11.88499,5.6081,11.69248,5.64654,11.53831C5.64654,11.53831,6.60274,7.76977,6.60274,7.76977C6.60274,7.76977,4.384709,7.76977,4.384709,7.76977C4.230976,7.76977,4.0781562,7.6931,4.0397182,7.53892C3.9661291,7.39704,3.99651945,7.22966,4.1166,7.11557C4.1166,7.11557,9.20325,2.11613,9.20325,2.11613C9.316980000000001,1.99763278,9.50828,1.9657005,9.66261,2.0394593C9.81542,2.11613,9.89229,2.30864,9.85384,2.462816C9.85384,2.462816,8.897639999999999,6.23135,8.897639999999999,6.23135C8.897639999999999,6.23135,11.11567,6.23135,11.11567,6.23135C11.26941,6.23135,11.42222,6.30802,11.460650000000001,6.46219C11.53659,6.61637,11.498149999999999,6.77054,11.38378,6.88555C11.38378,6.88555,6.29713,11.88499,6.29713,11.88499C6.22025,11.96166,6.1443200000000004,12,6.0290099999999995,12C6.0290099999999995,12,6.0290099999999995,12,6.0290099999999995,12Z" fill="#FFFFFF" fill-opacity="1"/></g></g></svg>