<svg xmlns="http://www.w3.org/2000/svg" xmlns:xlink="http://www.w3.org/1999/xlink" fill="none" version="1.1" width="38.4615478515625" height="38.46142578125" viewBox="0 0 38.4615478515625 38.46142578125"><defs><clipPath id="master_svg0_471_57902"><rect x="7.692307472229004" y="7.6923828125" width="23.076923370361328" height="23.076919555664062" rx="0"/></clipPath></defs><g><rect x="0" y="0" width="38.4615364074707" height="38.46153259277344" rx="7.692307472229004" fill="#FD6E35" fill-opacity="0.10000000149011612"/><g clip-path="url(#master_svg0_471_57902)"><g><path d="M25.4720553237915,8.384765625C26.677055323791503,8.384765625,27.653855323791504,9.560015625,27.653855323791504,11.009765625L27.653855323791504,26.759765625C27.653855323791504,28.209465625,26.677055323791503,29.384765625,25.4720553237915,29.384765625L13.835675323791504,29.384765625C12.630688323791503,29.384765625,11.653855323791504,28.209465625,11.653855323791504,26.759765625L11.653855323791504,11.009765625C11.653855193744503,9.560015625,12.630688323791503,8.384765625,13.835675323791504,8.384765625L25.4720553237915,8.384765625ZM21.835655323791507,23.259765625L16.017495323791504,23.259765625C15.615825323791505,23.259765625,15.290215323791504,23.651565625,15.290215323791504,24.134765625C15.290215323791504,24.617965625,15.615825323791505,25.009765625,16.017495323791504,25.009765625L21.835655323791507,25.009765625C22.237355323791505,25.009765625,22.562955323791506,24.617965625,22.562955323791506,24.134765625C22.562955323791506,23.651565625,22.237355323791505,23.259765625,21.835655323791507,23.259765625ZM21.835655323791507,19.759765625L16.017495323791504,19.759765625C15.616105323791505,19.760265625000002,15.290925323791503,20.151865625,15.290925323791503,20.634765625C15.290925323791503,21.117665625,15.616105323791505,21.509265624999998,16.017495323791504,21.509765625L21.835655323791507,21.509765625C22.237055323791502,21.509265624999998,22.562255323791504,21.117665625,22.562255323791504,20.634765625C22.562255323791504,20.151865625,22.237055323791502,19.760265625000002,21.835655323791507,19.759765625ZM19.653855323791504,11.009765625L16.017495323791504,11.009765625C15.615825323791505,11.009765625,15.290215323791504,11.401515625,15.290215323791504,11.884765625L15.290215323791504,16.406765625C15.290125323791504,16.726755625,15.435235323791504,17.021285625,15.668595323791504,17.174795625C15.901965323791504,17.328305625,16.186365323791506,17.316315625,16.410215323791505,17.143515625L17.442945323791506,16.345515625C17.682255323791505,16.160785625,17.989095323791503,16.160785625,18.228405323791506,16.345515625L19.261125323791504,17.143515625C19.484985323791506,17.316305625,19.769385323791504,17.328305625,20.002755323791504,17.174795625C20.236115323791502,17.021285625,20.3812153237915,16.726755625,20.381125323791505,16.406765625L20.381125323791505,11.884765625C20.381125323791505,11.401515625,20.055515323791504,11.009765625,19.653855323791504,11.009765625Z" fill="#FD6E35" fill-opacity="1" style="mix-blend-mode:passthrough"/></g></g></g></svg>