<svg xmlns="http://www.w3.org/2000/svg" xmlns:xlink="http://www.w3.org/1999/xlink" fill="none" version="1.1" width="375" height="328" viewBox="0 0 375 328"><defs><linearGradient x1="0.49268993735313416" y1="0.04957234859466553" x2="0.49268993735313416" y2="0.9480706453323364" id="master_svg0_436_53736"><stop offset="0%" stop-color="#F3963D" stop-opacity="0.14901961386203766"/><stop offset="37.68613040447235%" stop-color="#F57549" stop-opacity="0"/><stop offset="100%" stop-color="#F3663D" stop-opacity="0"/></linearGradient><mask id="master_svg1_436_59512" style="mask-type:alpha" maskUnits="objectBoundingBox"><g><path d="M0 0C0 0 0 0 0 0L375 0C375 0 375 0 375 0L375 327C375 327 375 327 375 327L0 327C0 327 0 327 0 327Z" fill="#FFFFFF" fill-opacity="1"/></g></mask><filter id="master_svg2_436_59514" filterUnits="objectBoundingBox" color-interpolation-filters="sRGB" x="-0.6940689613079203" y="-0.6940689613079203" width="2.3881379226158406" height="2.3881379226158406"><feFlood flood-opacity="0" result="BackgroundImageFix"/><feBlend mode="normal" in="SourceGraphic" in2="BackgroundImageFix" result="shape"/><feGaussianBlur stdDeviation="50.31999969482422" result="effect1_foregroundBlur"/></filter><linearGradient x1="0.1730649769306183" y1="0.23804783821105957" x2="0.5471481680870057" y2="0.8589723706245422" id="master_svg3_436_53730"><stop offset="0%" stop-color="#FFDEB3" stop-opacity="1"/><stop offset="59.76974964141846%" stop-color="#FFEFDC" stop-opacity="1"/><stop offset="100%" stop-color="#FFFFFF" stop-opacity="1"/></linearGradient><filter id="master_svg4_436_59511" filterUnits="objectBoundingBox" color-interpolation-filters="sRGB" x="-0.906666661168004" y="-0.906666661168004" width="2.8133333223360077" height="2.8133333223360077"><feFlood flood-opacity="0" result="BackgroundImageFix"/><feBlend mode="normal" in="SourceGraphic" in2="BackgroundImageFix" result="shape"/><feGaussianBlur stdDeviation="50.31999969482422" result="effect1_foregroundBlur"/></filter><linearGradient x1="0.7288867831230164" y1="0.1600983738899231" x2="0.3958322405815125" y2="0.6852139234542847" id="master_svg5_436_53739"><stop offset="0%" stop-color="#FFAB8E" stop-opacity="1"/><stop offset="100%" stop-color="#FFEFEB" stop-opacity="1"/></linearGradient><mask id="master_svg6_436_59539" style="mask-type:alpha" maskUnits="objectBoundingBox"><g><path d="M0 88C0 88 0 88 0 88L375 88C375 88 375 88 375 88L375 288C375 288 375 288 375 288L0 288C0 288 0 288 0 288Z" fill="#FFFFFF" fill-opacity="1"/></g></mask><linearGradient x1="0.522507905960083" y1="0.2452000230550766" x2="0.7402972198926454" y2="0.9357209694348013" id="master_svg7_436_53635"><stop offset="0%" stop-color="#FFF2E7" stop-opacity="1"/><stop offset="100%" stop-color="#FFEDDF" stop-opacity="0.532340943813324"/></linearGradient><linearGradient x1="1.0713459253311157" y1="-0.09946316480636597" x2="0.6503636061405155" y2="1.237671378989798" id="master_svg8_436_53720"><stop offset="0%" stop-color="#FBF6E1" stop-opacity="1"/><stop offset="100%" stop-color="#FF9500" stop-opacity="1"/></linearGradient><linearGradient x1="0.14996565878391266" y1="-0.06881505250930786" x2="0.6105898751879493" y2="0.7727208072426899" id="master_svg9_436_53716"><stop offset="0%" stop-color="#FFA33E" stop-opacity="1"/><stop offset="100%" stop-color="#FF8E2F" stop-opacity="1"/></linearGradient><linearGradient x1="1.0334136486053467" y1="-5.321980953216553" x2="-0.26612318517979905" y2="-5.272801473228616" id="master_svga_436_53672"><stop offset="0%" stop-color="#FFA15C" stop-opacity="1"/><stop offset="100%" stop-color="#FF7900" stop-opacity="1"/></linearGradient><linearGradient x1="1" y1="-0.15445059537887573" x2="0.031815988989259164" y2="0.009839276824608861" id="master_svgb_436_53703"><stop offset="0%" stop-color="#FF8413" stop-opacity="1"/><stop offset="100%" stop-color="#FFB352" stop-opacity="1"/></linearGradient><linearGradient x1="0.43871790170669556" y1="0.8832886815071106" x2="1.8060545969687518" y2="0.05676479656434852" id="master_svgc_436_53695"><stop offset="0%" stop-color="#FFFFFF" stop-opacity="1"/><stop offset="100%" stop-color="#FFAB48" stop-opacity="1"/></linearGradient><linearGradient x1="1.370445966720581" y1="-0.4393705427646637" x2="-0.7100312873041589" y2="0.06951487403421597" id="master_svgd_436_53652"><stop offset="0%" stop-color="#FF9E37" stop-opacity="1"/><stop offset="100%" stop-color="#FFFFFF" stop-opacity="1"/></linearGradient><linearGradient x1="0.34343525767326355" y1="0.2921450138092041" x2="1.0620185512027782" y2="0.32392636897387206" id="master_svge_436_53709"><stop offset="0%" stop-color="#FFF3E6" stop-opacity="1"/><stop offset="100%" stop-color="#FFC88E" stop-opacity="1"/></linearGradient><linearGradient x1="-0.26236969232559204" y1="0" x2="0.8450715068979734" y2="0.1305989445944027" id="master_svgf_436_53655"><stop offset="0%" stop-color="#FFF0E0" stop-opacity="1"/><stop offset="100%" stop-color="#FC9D30" stop-opacity="1"/></linearGradient><linearGradient x1="0.24000799655914307" y1="0.20147249102592468" x2="1.3929880949644178" y2="0.5558159936560703" id="master_svgg_436_53692"><stop offset="0%" stop-color="#FFF9F3" stop-opacity="1"/><stop offset="100%" stop-color="#FEBF79" stop-opacity="1"/></linearGradient><linearGradient x1="0.9131192564964294" y1="-0.06180884689092636" x2="0.2497797005912078" y2="1.5970763563081263" id="master_svgh_436_53689"><stop offset="0%" stop-color="#FFFEFC" stop-opacity="1"/><stop offset="100%" stop-color="#FF8308" stop-opacity="1"/></linearGradient><linearGradient x1="0.5" y1="-0.29853132367134094" x2="0.5" y2="1" id="master_svgi_436_53646"><stop offset="0%" stop-color="#F67D33" stop-opacity="1"/><stop offset="100%" stop-color="#FF8B1B" stop-opacity="1"/></linearGradient><linearGradient x1="0.5" y1="0" x2="0.5" y2="1" id="master_svgj_436_53678"><stop offset="0%" stop-color="#FF7E3D" stop-opacity="1"/><stop offset="100%" stop-color="#FF6E0D" stop-opacity="1"/></linearGradient><linearGradient x1="0.7559588551521301" y1="0.08595835417509079" x2="-0.5385973453521729" y2="2.615324020385742" id="master_svgk_436_53683"><stop offset="0%" stop-color="#FDC039" stop-opacity="1"/><stop offset="100%" stop-color="#FFAF44" stop-opacity="1"/></linearGradient><linearGradient x1="0.30480632185935974" y1="0.1831270158290863" x2="0.7662013882557238" y2="0.9594615655465752" id="master_svgl_436_53686"><stop offset="0%" stop-color="#FD903A" stop-opacity="1"/><stop offset="100%" stop-color="#FDBA3A" stop-opacity="1"/></linearGradient><filter id="master_svgm_447_55590" filterUnits="objectBoundingBox" color-interpolation-filters="sRGB" x="-0.09782608695652174" y="-0.25" width="1.1956521739130435" height="1.5625"><feFlood flood-opacity="0" result="BackgroundImageFix"/><feColorMatrix in="SourceAlpha" type="matrix" values="0 0 0 0 0 0 0 0 0 0 0 0 0 0 0 0 0 0 127 0"/><feMorphology radius="1" operator="dilate" in="SourceAlpha" result="effect1_dropShadow"/><feOffset dy="1" dx="0"/><feGaussianBlur stdDeviation="2"/><feColorMatrix type="matrix" values="0 0 0 0 0.805806577205658 0 0 0 0 0.5778563618659973 0 0 0 0 0.3962457776069641 0 0 0 0.22882293164730072 0"/><feBlend mode="normal" in2="BackgroundImageFix" result="effect1_dropShadow"/><feBlend mode="normal" in="SourceGraphic" in2="effect1_dropShadow" result="shape"/></filter></defs><g><g><g style="opacity:0.800000011920929;"><path d="M0 0C0 0 0 0 0 0L375 0C375 0 375 0 375 0L375 327C375 327 375 327 375 327L0 327C0 327 0 327 0 327Z" fill="url(#master_svg0_436_53736)" fill-opacity="1"/></g><g mask="url(#master_svg1_436_59512)"><g><path d="M0 0C0 0 0 0 0 0L375 0C375 0 375 0 375 0L375 327C375 327 375 327 375 327L0 327C0 327 0 327 0 327Z" fill="#FFFFFF" fill-opacity="1"/></g><g filter="url(#master_svg2_436_59514)"><ellipse cx="124" cy="-19" rx="145" ry="145" fill="url(#master_svg3_436_53730)" fill-opacity="1"/></g><g filter="url(#master_svg4_436_59511)"><ellipse cx="353.5" cy="56" rx="111" ry="111" fill="url(#master_svg5_436_53739)" fill-opacity="1"/></g></g></g><g mask="url(#master_svg6_436_59539)"><g><g style="opacity:0.4989980161190033;"><g style="opacity:0.1174527108669281;"><path d="M106,273.517L61,273.517L61,158.5257L106,130L106,273.517Z" fill-rule="evenodd" fill="#FFA641" fill-opacity="1"/></g><g style="opacity:0.2373068630695343;"><path d="M117,237L123,237L123,115L117,115L117,237Z" fill-rule="evenodd" fill="#FFA038" fill-opacity="1"/></g><g style="opacity:0.1612759530544281;"><path d="M123,237L148,237L148,115L123,115L123,237Z" fill-rule="evenodd" fill="#FF8F10" fill-opacity="1"/></g><g style="opacity:0.3247310221195221;"><path d="M262,242L272,242L272,139L262,139L262,242Z" fill-rule="evenodd" fill="#FF952A" fill-opacity="1"/></g><g style="opacity:0.7929854393005371;"><path d="M272,242L302,242L302,139L272,139L272,242Z" fill-rule="evenodd" fill="#FFE6D9" fill-opacity="1"/></g><g><path d="M158,251L183,251L183,136L158,136L158,251Z" fill-rule="evenodd" fill="#FFE6C9" fill-opacity="1"/></g><g style="opacity:0.0859404057264328;"><path d="M161,251L168,251L168,136L161,136L161,251Z" fill-rule="evenodd" fill="#FF9F38" fill-opacity="1"/></g><g><path d="M188,243L223,243L223,153L188,153L188,243Z" fill-rule="evenodd" fill="#FEF0E4" fill-opacity="1"/></g><g style="opacity:0.459199458360672;"><path d="M195,251L202,251L202,153L195,153L195,251Z" fill-rule="evenodd" fill="#FFD7AC" fill-opacity="1"/></g><g><path d="M227,234L240,234L240,94L227,94L227,234Z" fill-rule="evenodd" fill="#FFE6C9" fill-opacity="1"/></g><g><path d="M219,248L230,248L230,108L219,108L219,248Z" fill-rule="evenodd" fill="#FFE6C9" fill-opacity="1"/></g><g><path d="M239,245L250,245L250,105L239,105L239,245Z" fill-rule="evenodd" fill="#FFE6C9" fill-opacity="1"/></g><g style="opacity:0.1734575480222702;"><path d="M233,214L236,214L236,106L233,106L233,214Z" fill-rule="evenodd" fill="#FF8E20" fill-opacity="1"/></g><g style="opacity:0.1734575480222702;"><path d="M223,220L226,220L226,112L223,112L223,220Z" fill-rule="evenodd" fill="#FF8E20" fill-opacity="1"/></g><g style="opacity:0.1734575480222702;"><path d="M242,220L245,220L245,112L242,112L242,220Z" fill-rule="evenodd" fill="#FF8E20" fill-opacity="1"/></g></g><g style="opacity:0.8230743408203125;"><g><path d="M61.66990280151367 209.52112579345703C61.66990280151367 209.52112579345703 61.66990280151367 209.52112579345703 61.66990280151367 209.52112579345703L64.92232990264893 209.52112579345703C64.92232990264893 209.52112579345703 64.92232990264893 209.52112579345703 64.92232990264893 209.52112579345703L64.92232990264893 262C64.92232990264893 262 64.92232990264893 262 64.92232990264893 262L61.66990280151367 262C61.66990280151367 262 61.66990280151367 262 61.66990280151367 262Z" fill="#FFE2C2" fill-opacity="1"/></g><g><ellipse cx="63.296117305755615" cy="205.3098602294922" rx="2.927184581756592" ry="2.9154930114746094" fill="#FFE2C2" fill-opacity="1"/></g><g><path d="M71.72453692626954,207.57746540161133L100.69648692626953,207.57746540161133C101.41638692626952,207.57746540161133,101.99998692626953,206.99388540161132,101.99998692626953,206.27399540161133C101.99998692626953,205.58824540161132,101.46868692626953,205.01976540161132,100.78448692626952,204.97349540161133L74.38475692626953,203.18827040161133C73.00002692626953,203.09463020161132,71.63328692626953,203.54412840161132,70.57445692626953,204.44141540161132C69.31068692626953,205.51236540161133,70.06802692626952,207.57746540161133,71.72453692626954,207.57746540161133" fill-rule="evenodd" fill="#FFE2C2" fill-opacity="1"/></g><g><path d="M35.645049,230.02427687377929L58.659,207.0080131737793Q59.7184,206.4555448737793,59.7184,209.7943968737793C59.7184,213.1332568737793,57.018699999999995,215.3845668737793,53.349900000000005,218.7994768737793Q49.9012,222.0095768737793,37.59608,232.1678768737793C36.81777,232.8103768737793,35.635294,232.4828768737793,35.301617,231.5303768737793C35.117238,231.0040768737793,35.250729,230.4186768737793,35.645049,230.02427687377929" fill-rule="evenodd" fill="#FFE2C2" fill-opacity="1"/></g><g><path d="M47.34781233459473,170.304272C47.958002334594724,170.129743,48.60359233459473,170.43098,48.861842334594726,171.01073L61.22415233459473,198.7634C61.83865233459473,200.1429,61.265652334594726,201.7621,59.920152334594725,202.448C59.18035233459473,202.8251,58.29315233459472,202.8495,57.77915233459473,202.19729999999998Q56.43505233459473,200.4916,54.70278233459473,195.6325Q52.390532334594724,189.1467,46.49845533459472,171.95768C46.26196433459473,171.26776,46.64660033459473,170.504833,47.34781233459473,170.304272" fill-rule="evenodd" fill="#FFE2C2" fill-opacity="1"/></g></g></g></g><g><g style="opacity:0.969732403755188;"><path d="M375,327.1236011871338Q331.876,239.1270011871338,187.5,236.3099801871338Q43.1237,233.4929611871338,0,327.1236011871338L375,327.1236011871338Z" fill-rule="evenodd" fill="url(#master_svg7_436_53635)" fill-opacity="1"/></g><g><g style="opacity:0.1632617712020874;"><ellipse cx="152" cy="310.5" rx="82" ry="5.5" fill="#FF8E2F" fill-opacity="1"/></g><g><g><g><g><ellipse cx="283.9443073272705" cy="260.314359664917" rx="5.184000015258789" ry="5.184000015258789" fill="#FFBB2A" fill-opacity="1"/></g><g><ellipse cx="283.9443063735962" cy="260.3143587112427" rx="2.5920000076293945" ry="2.5920000076293945" fill="#FBF7D3" fill-opacity="1"/></g><g><path d="M260.62544298171997,299.2496L304.70874298172,299.2496L304.70874298172,239.48329999999999C304.70874298172,235.7145,304.70334298171997,233.7974,304.03754298172,232.2332C303.45914298172,230.8744,302.53154298171995,229.6885,301.35204298172,228.7997C299.99434298171997,227.77674,298.13504298171995,227.3097,294.47714298171996,226.40183L277.35064298171994,222.15111C271.64844298172,220.73585,268.71484298172,220.02309,266.47761298172,220.7442C264.57269298171997,221.3582,262.93391298171997,222.63996,261.87912298171995,224.34088C260.64032808172,226.33853,260.62544298171997,229.3574,260.62544298171997,235.2326L260.62544298171997,299.2496Z" fill-rule="evenodd" fill="url(#master_svg8_436_53720)" fill-opacity="1"/></g><g><path d="M266.1363067626953 239.59999990463257C266.1363067626953 237.61177485791168 267.748081620607 236 269.7363066673279 236L295.8363060951233 236C297.82453114184415 236 299.43630599975586 237.61177485791168 299.43630599975586 239.59999990463257L299.43630599975586 280.1000008583069C299.43630599975586 282.08822590502774 297.82453114184415 283.70000076293945 295.8363060951233 283.70000076293945L269.7363066673279 283.70000076293945C267.748081620607 283.70000076293945 266.1363067626953 282.08822590502774 266.1363067626953 280.1000008583069Z" fill="url(#master_svg9_436_53716)" fill-opacity="1"/></g><g><path d="M254.1363067626953 301.786358833313C254.1363067626953 300.35483675753795 255.2967846945497 299.1943588256836 256.7283067703247 299.1943588256836L308.56830501556396 299.1943588256836C309.999827091339 299.1943588256836 311.16030502319336 300.35483675753795 311.16030502319336 301.786358833313L311.16030502319336 301.786358833313C311.16030502319336 303.217880909088 309.999827091339 304.3783588409424 308.56830501556396 304.3783588409424L256.7283067703247 304.3783588409424C255.2967846945497 304.3783588409424 254.1363067626953 303.217880909088 254.1363067626953 301.786358833313Z" fill="#515151" fill-opacity="1"/></g></g><g><path d="M281.33333,242L288.4242,242L284.09091,247.25L290,247.25L280.54545,257L282.51515,249.875L277,249.875L281.33333,242Z" fill="#FFFFFF" fill-opacity="1"/></g><g><path d="M51.639414932521056,285.8703547363281C53.17650173252106,287.92181473632814,54.59561173252106,290.5237247363281,54.87848173252106,291.6855847363281Q54.88318173252106,291.7048547363281,54.88783173252106,291.7243347363281C55.64030173252106,294.87570473632815,57.995271732521054,297.5137047363281,61.23524173252106,297.5137047363281L221.41907173252105,297.5137047363281Q226.36007173252105,296.15150473632815,228.80007173252105,291.8564947363281Q231.24107173252105,287.56145473632813,232.04107173252106,284.2234477363281L52.60401173252106,284.10110473632824L52.20588073252106,284.15160103632815C51.88211773252106,284.1926646363281,51.639414932521056,284.4680947363281,51.639414932521056,284.79445073632814L51.639414932521056,285.5472747363281Q51.47672853252106,285.6532247363281,51.639414932521056,285.8703547363281Z" fill-rule="evenodd" fill="url(#master_svga_436_53672)" fill-opacity="1"/></g><g><g><ellipse cx="198.4083080291748" cy="292.51999855041504" rx="17.496000289916992" ry="17.496000289916992" fill="#5E5D5D" fill-opacity="1"/></g><g><ellipse cx="198.40830731391907" cy="292.5199978351593" rx="14.255999565124512" ry="14.255999565124512" fill="#515151" fill-opacity="1"/></g><g><ellipse cx="198.4083080291748" cy="292.51999855041504" rx="7.776000022888184" ry="7.776000022888184" fill="#DEDEDE" fill-opacity="1"/></g><g><ellipse cx="198.40830731391907" cy="292.5199978351593" rx="3.240000009536743" ry="3.240000009536743" fill="#515151" fill-opacity="1"/></g></g><g><g><ellipse cx="99.26431083679199" cy="292.51999855041504" rx="17.496000289916992" ry="17.496000289916992" fill="#5E5D5D" fill-opacity="1"/></g><g><ellipse cx="99.26431012153625" cy="292.5199978351593" rx="14.255999565124512" ry="14.255999565124512" fill="#515151" fill-opacity="1"/></g><g><ellipse cx="99.26431083679199" cy="292.51999855041504" rx="7.776000022888184" ry="7.776000022888184" fill="#DEDEDE" fill-opacity="1"/></g><g><ellipse cx="99.26431012153625" cy="292.5199978351593" rx="3.240000009536743" ry="3.240000009536743" fill="#515151" fill-opacity="1"/></g></g><g><path d="M51.63942,285.90985727386476Q49.092429,279.5438572738648,50.502427,274.5911572738647C51.91242,269.63835727386476,53.16739,265.5381572738647,61.5208,260.81935727386474C69.35679999999999,256.39275727386473,73.6155,256.07905727386475,78.0545,255.82795727386474C78.9729,255.77605727386475,80.4011,256.1416572738647,81.482,256.1416572738647C87.6117,256.1416572738647,92.35220000000001,254.30955727386475,94.5007,253.33535727386476C96.64920000000001,252.36115727386473,113.357,242.96495727386474,117.7978,240.31035727386475C122.2386,237.65576727386474,129.4117,234.64831727386473,131.3376,234.36592727386474C133.2635,234.08354727386475,145.2353,232.11195727386473,161.099,233.23894327386475C176.964,234.36592727386474,182.305,236.88390727386474,184.878,238.00666727386474C187.451,239.12943727386474,198.332,244.78035727386475,202.887,248.20935727386475Q207.443,251.63845727386473,211.194,254.51515727386476L220.203,251.59495727386474Q224.421,252.15355727386475,228.231,255.23035727386474C232.041,258.30705727386476,235.23,263.45775727386473,234.206,273.0900572738648Q233.182,282.72235727386476,232.041,284.22345727386477L213.696,284.22345727386477Q211.739,281.2272572738647,210.452,279.9892572738647C207.789,277.4276572738647,204.149,275.70765727386475,199.081,275.29355727386474C195.172,274.97405727386473,191.743,276.18415727386474,189.006,277.8554572738648Q186.479,279.39805727386477,182.908,284.22345727386477L114.62,284.22345727386477Q111.7858,280.06045727386476,109.7627,278.58155727386475C106.9422,276.5198572738648,103.32730000000001,275.13275727386474,98.9695,275.02395727386477C94.83500000000001,274.9208572738647,90.4821,277.22305727386475,88.3817,278.8361572738647Q86.2813,280.44925727386476,83.8526,284.22345727386477L53.16739,284.22345727386477Q52.18543,283.99185727386475,51.91242,284.5533572738648Q51.63942,285.11475727386477,51.63942,285.90985727386476Z" fill-rule="evenodd" fill="url(#master_svgb_436_53703)" fill-opacity="1"/></g><g><path d="M53.16738533973694,274.5862329772949Q61.85052533973694,274.7013329772949,66.47858533973694,272.0871329772949C71.10668533973694,269.4728929772949,72.60648533973693,267.5777429772949,74.16558533973694,265.1857529772949Q75.72468533973694,262.79376297729493,76.10328533973694,260.3125213772949Q68.06508533973694,259.77372397729494,62.07105533973694,263.7575929772949Q56.077005339736935,267.74146297729493,53.16738533973694,274.5862329772949Z" fill-rule="evenodd" fill="url(#master_svgc_436_53695)" fill-opacity="1"/></g><g><path d="M78.05445671081543,255.82793055725097Q103.51465671081543,243.706760557251,111.45885671081544,240.47608055725098Q119.40305671081543,237.24539055725097,131.33765671081542,234.36593055725098Q124.83425671081542,236.32109055725098,118.26615671081544,240.04511055725098Q111.69805671081542,243.76913055725097,98.42295671081543,251.26273055725096Q92.54675671081543,254.74333055725097,87.87755671081543,255.49803055725098Q83.20833671081543,256.25273055725097,78.05445671081543,255.82793055725097Z" fill-rule="evenodd" fill="url(#master_svgd_436_53652)" fill-opacity="1"/></g><g><path d="M110.87541961669922,251.68148039245605L192.39931961669922,251.68148039245605Q194.1474196166992,251.53728039245607,194.1474196166992,250.73238039245607C194.1474196166992,249.92748039245606,192.07831961669922,246.56188039245606,188.11531961669922,244.26248039245604C184.15231961669923,241.96309039245605,172.55171961669922,237.87811039245605,159.30851961669921,236.89930139245607C146.06541961669922,235.92049339245605,143.17261961669922,236.33324309245606,138.3821196166992,236.89930139245607C133.59161961669923,237.46536039245606,132.1404196166992,238.37321039245606,126.82781961669922,240.82073039245606Q121.51521961669921,243.26825039245605,110.87541961669922,251.68148039245605Z" fill-rule="evenodd" fill="url(#master_svge_436_53709)" fill-opacity="1"/></g><g style="opacity:0.6737565398216248;"><path d="M161.09945678710938,251.6815101776123L192.42765678710938,251.6815101776123Q193.09945678710938,251.5781101776123,193.09945678710938,251.0013101776123C193.09945678710938,250.42451017761232,192.30435678710938,248.0125301776123,190.78135678710936,246.3646701776123C189.25845678710937,244.7168101776123,184.80055678710937,241.7893101776123,179.71145678710937,241.0878471776123C174.62235678710937,240.3863841776123,173.5107567871094,240.6821813776123,171.66985678710938,241.0878471776123C169.8288967871094,241.4935121776123,169.2712367871094,242.1441201776123,167.22969678710936,243.8981401776123Q165.18815678710936,245.6521501776123,161.09945678710938,251.6815101776123Z" fill-rule="evenodd" fill="url(#master_svgf_436_53655)" fill-opacity="1"/></g><g><path d="M183.1615753173828,237.1646409355713Q185.8909853173828,236.70668433557128,193.05765531738282,240.0801733355713Q200.22437531738282,243.4536633355713,220.20277531738282,251.59500333557128L211.19427531738282,254.5151033355713Q202.5613753173828,247.98890333557128,199.40667531738282,245.8057533355713C196.2519753173828,243.6226433355713,187.88079531738282,239.51157333557128,186.7046453173828,238.80964333557128Q185.5284953173828,238.1077193355713,183.1615753173828,237.1646409355713Z" fill-rule="evenodd" fill="url(#master_svgg_436_53692)" fill-opacity="1"/></g><g><path d="M228.141343828125,255.0696781647949Q221.113517828125,254.3151971647949,220.456596328125,258.8570601647949C219.799674828125,263.39893016479493,223.404763828125,268.4263001647949,226.229593828125,270.7474001647949Q229.054423828125,273.0684001647949,234.090473828125,274.66320016479494Q234.635273828125,269.3291001647949,234.399873828125,267.30430016479494C234.292673828125,266.3827001647949,233.831373828125,262.6818501647949,231.777973828125,259.19173016479493Q230.571873828125,257.1416501647949,228.141343828125,255.0696781647949Z" fill-rule="evenodd" fill="url(#master_svgh_436_53689)" fill-opacity="1"/></g><g transform="matrix(1,0,0,-1,0,540.6697158813477)" style="opacity:0.6000000238418579;"><path d="M104.54825341796875,283.4902579406738L104.54825341796875,270.3348579406738L105.84425341796874,270.3348579406738L105.84425341796874,283.4902579406738L104.54825341796875,283.4902579406738Z" fill-rule="evenodd" fill="url(#master_svgi_436_53646)" fill-opacity="1"/></g><g transform="matrix(1,0,0,-1,0,540.4958648681641)" style="opacity:0.6000000238418579;"><path d="M184.25780236816405,282.84433243408205L184.25780236816405,270.24793243408203L185.55380236816407,270.24793243408203L185.55380236816407,282.84433243408205L184.25780236816405,282.84433243408205Z" fill-rule="evenodd" fill="url(#master_svgj_436_53678)" fill-opacity="1"/></g><g><path d="M231.72573237304687,283.9899352807617C231.72573237304687,283.3787152807617,231.72413237304687,283.05897528076173,231.65433237304688,282.80892528076174C231.47223237304686,282.1563552807617,230.95813237304688,281.6422592807617,230.30553237304687,281.4601085807617C230.05543237304687,281.3903116607617,229.7357323730469,281.3887252807617,229.1245223730469,281.3887252807617L222.17564237304688,281.3887252807617C221.56442237304688,281.3887252807617,221.24468237304689,281.3903116407617,220.99463237304687,281.4601085807617C220.34206237304687,281.6422592807617,219.82796637304688,282.1563552807617,219.64581567304688,282.80892528076174C219.57601873304688,283.05897528076173,219.57443237304688,283.3787152807617,219.57443237304688,283.9899352807617L219.57443237304688,284.2234452807617L231.72573237304687,283.9899352807617Z" fill-rule="evenodd" fill="#F7ECEC" fill-opacity="1"/></g><g><path d="M283.03463706054686,280.5290851318359Q285.00313706054686,272.2516851318359,284.6653370605469,265.34864513183595L282.7237370605469,265.4436451318359Q283.0479370605469,272.0707851318359,281.14333706054686,280.07928513183595Q279.9668370605469,285.0268851318359,274.1964370605469,288.64198513183595Q269.5580370605469,291.54798513183596,266.7868370605469,291.54798513183596L229.24133706054687,291.54798513183596Q225.17833706054688,291.54798513183596,221.17373706054687,285.98708513183595Q218.77513706054688,282.65628513183594,215.26335706054687,275.1033851318359Q214.60652706054688,273.69068513183595,214.30386706054688,273.05818513183596Q211.16007706054688,266.4879551318359,207.23418806054687,260.85463713183594L205.63928606054688,261.96613313183593Q209.47474706054686,267.4696951318359,212.55027706054688,273.89728513183593Q212.84831706054686,274.5200851318359,213.50058706054688,275.92298513183596Q217.09003706054688,283.64288513183595,219.59623706054688,287.1230851318359Q224.18263706054688,293.4919851318359,229.24133706054687,293.4919851318359L266.7868370605469,293.4919851318359Q270.1167370605469,293.4919851318359,275.22853706054684,290.28938513183596Q281.6738370605469,286.25138513183595,283.03463706054686,280.5290851318359Z" fill-rule="evenodd" fill="#363636" fill-opacity="1"/></g><g><ellipse cx="283.9443097114563" cy="265.30400133132935" rx="4.535999774932861" ry="4.535999774932861" fill="#FFFFFF" fill-opacity="1"/></g><g><ellipse cx="283.94431018829346" cy="265.3040018081665" rx="2.5920000076293945" ry="2.5920000076293945" fill="#363636" fill-opacity="1"/></g><g><g><ellipse cx="203.47907400131226" cy="262.5790762901306" rx="6.779077053070068" ry="6.779077053070068" fill="#FFFFFF" fill-opacity="1"/><ellipse cx="203.47907400131226" cy="262.5790762901306" rx="6.779077053070068" ry="6.779077053070068" stroke="url(#master_svgk_436_53683)" fill-opacity="0" fill="none" stroke-width="1.7999999523162842"/></g><g><path d="M202.74959619750976,259.3595018386841L205.77057619750977,259.3595018386841L203.92442619750977,261.68565183868407L206.44190619750975,261.68565183868407L202.41393619750977,266.00565183868406L203.25309619750976,262.8487318386841L200.90344619750977,262.8487318386841L202.74959619750976,259.3595018386841Z" fill="url(#master_svgl_436_53686)" fill-opacity="1"/></g></g><g><g transform="matrix(-1,0,0,1,407.80108642578125,0)"><path d="M224.70054321289064,194L239.80104321289062,194L239.80104321289062,192L224.70054321289064,192Q213.48186321289063,192,210.46609321289063,193.563221Q206.51290321289062,195.61236,204.46376421289062,199.56555Q202.90054321289062,202.58132,202.90054321289062,213.8L202.90054321289062,254.9622L204.90054321289062,254.9622L204.90054321289062,213.8Q204.90054321289062,203.06889999999999,206.23939321289063,200.48595Q207.99656321289063,197.09602,211.38649321289063,195.33885Q213.96934321289064,193.999999,224.70054321289064,194Z" fill-rule="evenodd" fill="#6F99FC" fill-opacity="1"/></g><g><g filter="url(#master_svgm_447_55590)"><path d="M90 191C90 182.1634440027073 97.16344400270731 175 106 175L166 175C174.8365559972927 175 182 182.1634440027073 182 191L182 191C182 199.8365559972927 174.8365559972927 207 166 207L106 207C97.16344400270731 207 90 199.8365559972927 90 191Z" fill="#FFFFFF" fill-opacity="1"/></g><g><g><ellipse cx="107" cy="191" rx="13" ry="13" fill="#6F99FC" fill-opacity="1"/></g><g><g><path d="M112.90909099578857,189.85009251052855C112.71279099578857,189.82929251052857,112.51559099578857,189.81864251052858,112.31819099578857,189.81818251052857C109.39673099578857,189.81818251052857,107.00000099578857,192.21727251052857,107.00000099578857,195.13637251052856C107.00000099578857,196.80037251052858,107.78000099578857,198.29297251052856,108.99018099578858,199.27277251052857L102.27273099578858,199.27277251052857C100.96733099578857,199.27277251052857,99.90909099578857,198.21447251052857,99.90909099578857,196.90907251052857L99.90909099578857,185.09091251052857C99.90909099578857,183.78551251052858,100.96733099578857,182.72727251052856,102.27273099578858,182.72727251052856L110.54549099578857,182.72727251052856C111.84979099578857,182.72987336052856,112.90649099578857,183.78658251052858,112.90909099578857,185.09091251052857L112.90909099578857,189.85009251052855ZM107.82725099578857,185.09092251052857L107.12548099578858,188.63519251052855L107.12525099578858,188.63519251052855L107.12525099578858,188.63637251052856L107.12548099578858,188.63519251052855L109.21707099578857,188.63519251052855L104.69543099578857,193.95337251052857L105.73779099578857,189.81819251052858L103.30680099578858,189.81819251052858L107.82725099578857,185.09092251052857ZM116.45449099578857,195.13507251052857C116.45449099578857,192.86487251052856,114.66999099578857,190.99875251052856,112.31819099578857,190.99875251052856L112.31819099578857,190.99994251052857C110.04669099578858,190.99994251052857,108.18180099578858,192.86487251052856,108.18180099578858,195.13627251052856C108.19151099578858,197.41667251052857,110.03779099578857,199.26297251052856,112.31819099578857,199.27267251052857C114.58839099578857,199.27267251052857,116.45449099578857,197.40777251052856,116.45449099578857,195.13507251052857ZM111.88349099578858,192.93197251052857C111.98519099578857,192.82997251052856,112.12339099578857,192.77267251052857,112.26749099578858,192.77267251052857C112.41149099578857,192.77237251052856,112.54979099578857,192.82957251052858,112.65139099578857,192.93167251052856C112.75299099578858,193.03377251052856,112.80969099578857,193.17227251052856,112.80869099578857,193.31627251052856L112.80869099578857,194.94247251052857L114.43369099578857,194.94247251052857C114.63289099578857,194.93317251052855,114.82109099578858,195.03417251052858,114.92349099578857,195.20527251052857C115.02589099578857,195.37637251052857,115.02589099578857,195.58997251052855,114.92349099578857,195.76107251052855C114.82109099578858,195.93217251052857,114.63289099578857,196.03317251052857,114.43369099578857,196.02387251052858L112.26869099578857,196.02387251052858C111.96849099578857,196.02387251052858,111.72499099578857,195.78157251052858,111.72499099578857,195.48137251052856L111.72499099578857,193.31627251052856C111.72469099578858,193.17227251052856,111.78169099578858,193.03397251052857,111.88349099578858,192.93197251052857Z" fill-rule="evenodd" fill="#FFFFFF" fill-opacity="1"/></g></g></g><g><path d="M135.292,193.72Q135.292,194.032,135.274,194.446Q135.256,194.86,135.22,195.196Q135.172,195.988,134.8,196.33Q134.428,196.672,133.504,196.732Q133.252,196.756,132.736,196.756Q132.22,196.756,131.956,196.732Q131.44,196.696,131.13400000000001,196.546Q130.828,196.39600000000002,130.684,196.066Q130.54,195.736,130.54,195.16L130.54,191.848L128.88400000000001,191.92L128.848,192.376Q128.752,193.6,128.386,194.398Q128.02,195.196,127.252,195.814Q126.484,196.432,125.104,197.08L124.456,196.048Q125.644,195.52,126.292,195.034Q126.94,194.548,127.252,193.93Q127.564,193.312,127.66,192.352L127.696,191.98L126.856,192.028Q125.992,192.088,125.464,192.136L125.188,191.032Q125.38,190.996,125.62,190.882Q125.86,190.768,126.016,190.636Q126.436,190.276,127.03,189.676Q127.624,189.076,128.176,188.452L124.744,188.452L124.744,187.336L129.52,187.336Q129.112,186.244,128.944,185.944L130.084,185.632Q130.144,185.776,130.234,185.998Q130.324,186.22,130.444,186.496Q130.78,187.336,130.78,187.336L135.076,187.336L135.076,188.452L129.652,188.452Q128.692,189.58,127.3,190.948L132.268,190.708L131.14,189.46L132.004,188.716Q133.588,190.38400000000001,134.788,191.776L133.912,192.58L133.204,191.764Q132.196,191.788,131.716,191.812L131.716,194.908Q131.716,195.316,131.854,195.46Q131.992,195.60399999999998,132.376,195.652Q132.712,195.676,132.868,195.676Q133.048,195.676,133.36,195.652Q133.804,195.592,133.96,195.46Q134.11599999999999,195.328,134.14,194.932Q134.164,194.608,134.176,194.206Q134.188,193.804,134.188,193.528L135.292,193.72ZM147.496,193.756Q147.46,194.584,147.4,195.304Q147.352,195.892,147.148,196.192Q146.944,196.492,146.542,196.618Q146.14,196.744,145.42000000000002,196.78Q144.808,196.816,144.184,196.816Q143.584,196.816,142.948,196.78Q142.228,196.732,141.856,196.588Q141.484,196.444,141.322,196.09Q141.16,195.736,141.16,195.064L141.16,193.876L137.404,193.876L137.404,187.492L141.16,187.492L141.16,186.004L142.288,186.004L142.288,187.492L146.176,187.492L146.176,193.876L142.288,193.876L142.288,194.848Q142.288,195.34,142.48,195.526Q142.672,195.712,143.164,195.736Q143.632,195.772,144.112,195.772Q144.59199999999998,195.772,145.06,195.736Q145.552,195.7,145.798,195.628Q146.044,195.556,146.17000000000002,195.37Q146.296,195.184,146.308,194.8Q146.368,193.72,146.368,193.492L147.496,193.756ZM141.16,190.18L141.16,188.536L138.496,188.536L138.496,190.18L141.16,190.18ZM145.06,190.18L145.06,188.536L142.288,188.536L142.288,190.18L145.06,190.18ZM138.496,191.188L138.496,192.832L141.16,192.832L141.16,191.188L138.496,191.188ZM142.288,191.188L142.288,192.832L145.06,192.832L145.06,191.188L142.288,191.188ZM159.508,188.188L159.508,189.292L158.14,189.292L158.14,195.112Q158.14,195.748,157.996,196.09Q157.852,196.432,157.522,196.57Q157.192,196.708,156.57999999999998,196.732Q156.424,196.744,156.112,196.744Q155.476,196.744,154.876,196.672L154.66,195.544Q155.62,195.64,156.172,195.64Q156.52,195.64,156.688,195.592Q156.856,195.544,156.922,195.424Q156.988,195.304,156.988,195.04L156.988,189.292L153.436,189.292L153.436,188.188L156.988,188.188L156.988,185.944L158.14,185.944L158.14,188.188L159.508,188.188ZM152.764,195.952L148.912,195.952L148.912,186.796L152.764,186.796L152.764,195.952ZM151.72,190.624L151.72,187.948L149.992,187.948L149.992,190.624L151.72,190.624ZM155.308,193.576Q154.972,192.928,154.438,191.998Q153.904,191.068,153.60399999999998,190.624L154.504,190.108Q154.828,190.6,155.368,191.524Q155.90800000000002,192.448,156.196,193.012L155.308,193.576ZM149.992,191.692L149.992,194.848L151.72,194.848L151.72,191.692L149.992,191.692ZM166.588,191.584Q167.284,192.976,168.406,193.858Q169.528,194.74,171.472,195.448L170.88400000000001,196.564Q168.772,195.748,167.476,194.584Q166.18,193.42,165.34,191.584L163.54,191.584L163.54,195.388L166.45600000000002,194.26L166.492,195.484Q164.404,196.204,163.46800000000002,196.588Q162.832,196.852,162.53199999999998,197.02L161.96800000000002,195.82Q162.196,195.688,162.304,195.556Q162.412,195.424,162.412,195.244L162.412,191.584L160.6,191.584L160.6,190.48L162.412,190.48L162.412,185.992L163.54,185.992L163.54,190.48L171.328,190.48L171.328,191.584L166.588,191.584ZM170.308,187.264Q169.108,187.996,167.578,188.704Q166.048,189.412,164.644,189.904L164.212,188.836Q165.56799999999998,188.38,167.04399999999998,187.666Q168.52,186.952,169.744,186.196L170.308,187.264Z" fill="#515151" fill-opacity="1"/></g></g></g></g><g><path d="M162.5 262.09999918937683C162.5 261.1058866660164 163.30588742895586 260.29999923706055 164.29999995231628 260.29999923706055L177.80000042915344 260.29999923706055C178.79411295251387 260.29999923706055 179.60000038146973 261.1058866660164 179.60000038146973 262.09999918937683L179.60000038146973 262.09999918937683C179.60000038146973 263.0941117127373 178.79411295251387 263.8999991416931 177.80000042915344 263.8999991416931L164.29999995231628 263.8999991416931C163.30588742895586 263.8999991416931 162.5 263.0941117127373 162.5 262.09999918937683Z" fill="#FF6E0F" fill-opacity="1"/></g></g></g></g></g></svg>