<svg xmlns="http://www.w3.org/2000/svg" xmlns:xlink="http://www.w3.org/1999/xlink" fill="none" version="1.1" width="16" height="16" viewBox="0 0 16 16"><g><g></g><g><g transform="matrix(0,-1,1,0,-11.287072658538818,18.687191486358643)"><path d="M3.200059413909912,16.587132072448732L3.200059413909912,23.01213207244873Q3.200059413909912,23.97824207244873,3.367769413909912,24.30179207244873Q3.587158413909912,24.72503207244873,4.010405413909912,24.94442207244873Q4.3339514139099125,25.11213207244873,5.300059413909912,25.11213207244873L15.100059413909912,25.11213207244873Q16.06615941390991,25.11213207244873,16.389759413909914,24.94442207244873Q16.812959413909912,24.72503207244873,17.032359413909912,24.30179207244873Q17.200059413909912,23.97824207244873,17.200059413909912,23.01213207244873L17.200059413909912,16.587132072448732Q17.200059413909912,15.62102207244873,17.032359413909912,15.29747407244873Q16.812959413909912,14.874229072448731,16.389759413909914,14.65484207244873Q16.06615941390991,14.48713207244873,15.100059413909912,14.48713207244873L5.300059413909912,14.48713207244873Q4.333949413909912,14.48713207244873,4.010402413909912,14.65484207244873Q3.587158413909912,14.87423107244873,3.367769413909912,15.29747507244873Q3.200059413909912,15.62102207244873,3.200059413909912,16.587132072448732ZM4.2555854139099125,23.84159207244873Q4.200059413909912,23.73447207244873,4.200059413909912,23.01213207244873L4.200059413909912,16.587132072448732Q4.200059413909912,15.86479507244873,4.2555854139099125,15.757674072448731Q4.3289894139099125,15.616062072448731,4.470601413909912,15.54265807244873Q4.577722413909912,15.48713207244873,5.300059413909912,15.48713207244873L15.100059413909912,15.48713207244873Q15.822359413909911,15.48713207244873,15.929559413909912,15.54265807244873Q16.07115941390991,15.616062072448731,16.14455941390991,15.75767507244873Q16.200059413909912,15.864794072448731,16.200059413909912,16.587132072448732L16.200059413909912,23.01213207244873Q16.200059413909912,23.73447207244873,16.14455941390991,23.84159207244873Q16.07115941390991,23.98320207244873,15.929559413909912,24.056602072448733Q15.822359413909911,24.11213207244873,15.100059413909912,24.11213207244873L5.300059413909912,24.11213207244873Q4.577719413909912,24.11213207244873,4.470598413909912,24.056602072448733Q4.3289894139099125,23.98320207244873,4.2555854139099125,23.84159207244873Z" fill-rule="evenodd" fill="#333333" fill-opacity="1"/></g><g><path d="M6.84874415397644,2.2655242919921874L6.84874415397644,1.4405242919921875C6.84874415397644,0.9848892919921874,7.2180961539764406,0.6155242919921875,7.673744153976441,0.6155242919921875L9.32374415397644,0.6155242919921875C9.77939415397644,0.6155242919921875,10.148744153976441,0.9848892919921874,10.148744153976441,1.4405242919921875L10.148744153976441,2.2655242919921874L6.84874415397644,2.2655242919921874Z" fill="#333333" fill-opacity="1"/></g><g><path d="M8.317974010925292,11.64320747543335L8.317934010925294,11.64329747543335Q8.273744010925293,11.741307475433349,8.273744010925293,11.84881747543335L8.273834010925293,11.858227475433349Q8.275464010925294,11.94480747543335,8.306114010925294,12.02579747543335Q8.341324010925293,12.11881747543335,8.409444010925293,12.191277475433349Q8.477564010925294,12.26374747543335,8.568234010925293,12.30462747543335Q8.666234010925294,12.34881747543335,8.773744010925293,12.34881747543335Q8.787154010925294,12.34881747543335,8.800544010925293,12.348097475433349Q8.869224010925294,12.34440747543335,8.934354010925293,12.32231747543335Q8.999484010925293,12.30022747543335,9.056234010925293,12.26136747543335Q9.112984010925294,12.22250747543335,9.157134010925294,12.16976747543335Q9.201284010925292,12.11702747543335,9.229554010925293,12.05432747543335L9.229704010925293,12.053997475433349L10.879554010925293,8.39479747543335Q10.920434010925293,8.304127475433349,10.923504010925292,8.20471747543335Q10.926574010925293,8.10530747543335,10.891374010925293,8.01228747543335Q10.856164010925292,7.91927747543335,10.788044010925294,7.84680747543335Q10.719924010925293,7.77434747543335,10.629254010925294,7.73346747543335Q10.470944010925294,7.662087475433349,10.302474010925293,7.70420747543335L8.015041010925293,8.276067475433349L9.227604010925294,5.64823847543335L9.227744010925292,5.647936475433349Q9.273744010925293,5.54824247543335,9.273744010925293,5.43844747543335Q9.273744010925293,5.42722517543335,9.273244010925293,5.416014175433349Q9.270154010925292,5.34730477543335,9.248634010925294,5.2819804754333495Q9.227104010925293,5.21665647543335,9.188744010925292,5.15956947543335Q9.150384010925293,5.10248347543335,9.098034010925293,5.05787447543335Q9.045684010925292,5.013265475433349,8.983234010925294,4.984449475433349Q8.883544010925293,4.93844747543335,8.773744010925293,4.93844747543335Q8.762524010925294,4.93844747543335,8.751314010925293,4.93895147543335Q8.682604010925292,4.9420364754333495,8.617274010925293,4.96356047543335Q8.551954010925293,4.98508347543335,8.494864010925292,5.023444475433349Q8.437784010925293,5.061806475433349,8.393174010925293,5.114157475433349Q8.348564010925292,5.16650747543335,8.319744010925293,5.22895847543335L6.669746010925293,8.80478747543335Q6.5959600109252925,8.96469747543335,6.638673010925293,9.135547475433349Q6.650617010925293,9.18331747543335,6.671652010925293,9.22784747543335Q6.692686010925293,9.27237747543335,6.722004010925293,9.31194747543335Q6.751321010925293,9.35150747543335,6.787795010925293,9.384597475433349Q6.824268010925293,9.41768747543335,6.866496010925293,9.44302747543335Q6.908724010925293,9.46835747543335,6.955083010925293,9.48497747543335Q7.001443010925293,9.50158747543335,7.050152210925293,9.50882747543335Q7.098861510925293,9.516077475433349,7.148049010925293,9.51368747543335Q7.197236510925293,9.511297475433349,7.245012010925293,9.49934747543335L9.543694010925293,8.924677475433349L8.317974010925292,11.64320747543335Z" fill-rule="evenodd" fill="#333333" fill-opacity="1"/></g></g></g></svg>